<?xml version="1.0" encoding="utf-8"?>
<!-- Generator: Adobe Illustrator 27.5.0, SVG Export Plug-In . SVG Version: 6.00 Build 0)  -->
<svg version="1.1" xmlns="http://www.w3.org/2000/svg" xmlns:xlink="http://www.w3.org/1999/xlink" x="0px" y="0px"
	 viewBox="0 0 750 500" style="enable-background:new 0 0 750 500;" xml:space="preserve">
<g id="BACKGROUND">
	<rect style="fill:#FFFFFF;" width="750" height="500"/>
</g>
<g id="OBJECTS">
	<g>
		<path style="fill:#E8ECF9;" d="M164.234,334.309c2.868-0.453,5.732-0.901,8.591-1.327c65.373-9.75,134.653-7.7,194.178,21.029
			c24.647,11.895,49.324,28.642,76.58,26.177c19.944-1.804,37.326-13.741,53.697-25.274c39.894-28.104,81.426-56.818,129.34-66.069
			c16.812-3.246,34.554-4.154,49.619-12.293c15.065-8.138,26.438-26.855,19.314-42.426c-5.625-12.296-19.802-17.568-31.167-24.895
			c-30.906-19.924-44.043-58.898-71.963-82.827c-19.237-16.487-47.01-28.968-72.416-27.505
			c-29.027,1.671-56.716,13.12-85.944,12.975c-57.29-0.285-99.542-43.388-150.798-61.628c-15.14-5.388-32.595-6.873-48.073-1.99
			c-23.575,7.439-34.306,29.692-43.481,50.753c-9.148,20.998-14.347,42.809-28.315,61.419
			c-25.915,34.526-68.884,43.916-99.809,72.328c-15.747,14.467-27.863,36.327-23.862,58.309
			c4.741,26.051,31.166,42.696,55.61,46.909C118.117,341.901,141.298,337.934,164.234,334.309z"/>
		<g>
			<g>
				
					<line style="fill:none;stroke:#A0B3EA;stroke-width:1.5;stroke-linejoin:round;stroke-miterlimit:10;" x1="109.475" y1="149.053" x2="116.565" y2="156.143"/>
				
					<line style="fill:none;stroke:#A0B3EA;stroke-width:1.5;stroke-linejoin:round;stroke-miterlimit:10;" x1="116.565" y1="149.053" x2="109.475" y2="156.143"/>
			</g>
			<g>
				
					<line style="fill:none;stroke:#A0B3EA;stroke-width:1.5;stroke-linejoin:round;stroke-miterlimit:10;" x1="689.081" y1="369.652" x2="696.171" y2="376.742"/>
				
					<line style="fill:none;stroke:#A0B3EA;stroke-width:1.5;stroke-linejoin:round;stroke-miterlimit:10;" x1="696.171" y1="369.652" x2="689.081" y2="376.742"/>
			</g>
			<g>
				
					<line style="fill:none;stroke:#A0B3EA;stroke-width:1.5;stroke-linejoin:round;stroke-miterlimit:10;" x1="198.84" y1="360.628" x2="205.93" y2="367.718"/>
				
					<line style="fill:none;stroke:#A0B3EA;stroke-width:1.5;stroke-linejoin:round;stroke-miterlimit:10;" x1="205.93" y1="360.628" x2="198.84" y2="367.718"/>
			</g>
			<g>
				
					<line style="fill:none;stroke:#A0B3EA;stroke-width:1.5;stroke-linejoin:round;stroke-miterlimit:10;" x1="505.913" y1="39.111" x2="513.003" y2="46.202"/>
				
					<line style="fill:none;stroke:#A0B3EA;stroke-width:1.5;stroke-linejoin:round;stroke-miterlimit:10;" x1="513.003" y1="39.111" x2="505.913" y2="46.202"/>
			</g>
			<g>
				
					<line style="fill:none;stroke:#A0B3EA;stroke-width:1.5;stroke-linejoin:round;stroke-miterlimit:10;" x1="392.136" y1="82.185" x2="399.226" y2="89.275"/>
				
					<line style="fill:none;stroke:#A0B3EA;stroke-width:1.5;stroke-linejoin:round;stroke-miterlimit:10;" x1="399.226" y1="82.185" x2="392.136" y2="89.275"/>
			</g>
			
				<line style="fill:none;stroke:#A0B3EA;stroke-width:1.5;stroke-linejoin:round;stroke-miterlimit:10;" x1="326.526" y1="47.494" x2="355.984" y2="47.494"/>
			
				<line style="fill:none;stroke:#A0B3EA;stroke-width:1.5;stroke-linejoin:round;stroke-miterlimit:10;" x1="364.228" y1="47.494" x2="387.093" y2="47.494"/>
			<path style="fill:none;stroke:#A0B3EA;stroke-width:1.5;stroke-linejoin:round;stroke-miterlimit:10;" d="M363.352,234.266
				h-32.456c-4.542,0-8.224-3.682-8.224-8.224l0,0c0-4.542,3.682-8.224,8.224-8.224h32.456c4.542,0,8.224,3.682,8.224,8.224l0,0
				C371.576,230.585,367.894,234.266,363.352,234.266z"/>
			<path style="fill:none;stroke:#A0B3EA;stroke-width:1.5;stroke-linejoin:round;stroke-miterlimit:10;" d="M652.519,114.225
				h-16.085c-3.182,0-5.762,2.58-5.762,5.762s2.58,5.762,5.762,5.762h16.085c3.182,0,5.761-2.58,5.761-5.762
				S655.701,114.225,652.519,114.225z"/>
			<path style="fill:none;stroke:#A0B3EA;stroke-width:1.5;stroke-linejoin:round;stroke-miterlimit:10;" d="M435.31,145.966
				h-14.796c-5.854,0-10.6,4.746-10.6,10.6s4.746,10.6,10.6,10.6h14.796c5.854,0,10.6-4.746,10.6-10.6
				S441.165,145.966,435.31,145.966z"/>
			
				<line style="fill:none;stroke:#A0B3EA;stroke-width:1.5;stroke-linejoin:round;stroke-miterlimit:10;" x1="614.477" y1="66.315" x2="632.492" y2="66.315"/>
			
				<line style="fill:none;stroke:#A0B3EA;stroke-width:1.5;stroke-linejoin:round;stroke-miterlimit:10;" x1="77.705" y1="127.502" x2="114.177" y2="127.502"/>
		</g>
	</g>
	<g>
		<g>
			<path style="fill:#E3CDC5;" d="M353.819,340.89H121.824c-7.887,0-14.631-5.75-15.981-13.626l-22.67-132.224
				c-1.66-9.683,5.694-18.543,15.39-18.543h225.654c8.698,0,16.134,6.341,17.624,15.026l23.275,135.755
				C366.335,334.386,360.936,340.89,353.819,340.89z"/>
			<path style="fill:none;stroke:#B28C80;stroke-miterlimit:10;" d="M124.852,318.671l-20.979-122.362
				c-0.851-4.966,2.92-9.51,7.893-9.51h213.226c4.692,0,8.703,3.42,9.507,8.105l21.222,123.779"/>
			<g>
				<path style="fill:#E3CDC5;" d="M435.096,340.89H318.838c-3.543,0-6.573-2.583-7.179-6.121l-10.021-58.446
					c-0.831-4.848,2.851-9.284,7.706-9.284H412.32c9.386,0,17.412,6.843,19.018,16.215l8.833,51.521
					C440.719,337.968,438.294,340.89,435.096,340.89z"/>
				<path style="fill:none;stroke:#B28C80;stroke-miterlimit:10;" d="M415.449,334.775l-8.833-51.521
					c-1.607-9.373-9.633-16.215-19.018-16.215h-57.635"/>
			</g>
			<path style="fill:none;stroke:#B28C80;stroke-miterlimit:10;" d="M416.482,340.89H134.371v-19.705H408.34
				c2.76,0,5.119,1.99,5.583,4.711L416.482,340.89z"/>
			<path style="fill:none;stroke:#D8B6AF;stroke-width:3;stroke-miterlimit:10;" d="M301.674,409.17l14.928-58.86
				c1.428-5.63,5.393-9.419,9.856-9.419h100.866c4.682,0,8.786,4.164,10.029,10.174l12.016,58.106"/>
			
				<line style="fill:none;stroke:#D8B6AF;stroke-width:3;stroke-miterlimit:10;" x1="420.089" y1="340.89" x2="121.824" y2="340.89"/>
			<path style="fill:#E3CDC5;" d="M218.993,340.89H102.735c-3.543,0-6.573-2.583-7.179-6.121l-10.021-58.446
				c-0.831-4.848,2.851-9.284,7.706-9.284h102.976c9.386,0,17.412,6.843,19.018,16.215l8.833,51.521
				C224.616,337.968,222.191,340.89,218.993,340.89z"/>
			<path style="fill:none;stroke:#B28C80;stroke-miterlimit:10;" d="M218.993,340.89H102.735c-3.543,0-6.573-2.583-7.179-6.121
				l-10.021-58.446c-0.831-4.848,2.851-9.284,7.706-9.284h102.976c9.386,0,17.412,6.843,19.018,16.215l8.833,51.521
				C224.616,337.968,222.191,340.89,218.993,340.89z"/>
			<path style="fill:none;stroke:#B28C80;stroke-miterlimit:10;" d="M194.271,340.89c3.198,0,5.622-2.922,5.075-6.115l-8.833-51.521
				c-1.607-9.373-9.633-16.215-19.018-16.215H95.636"/>
			<path style="fill:none;stroke:#B28C80;stroke-width:3;stroke-miterlimit:10;" d="M85.417,409.17l14.928-58.86
				c1.428-5.63,5.393-9.419,9.856-9.419h100.866c4.682,0,8.786,4.164,10.029,10.174l12.016,58.106"/>
		</g>
		
			<line style="fill:none;stroke:#A0B3EA;stroke-width:1.5;stroke-miterlimit:10;" x1="59.316" y1="409.17" x2="475.771" y2="409.17"/>
		<g>
			<g>
				<g>
					<path style="fill:#361E14;" d="M290.504,249.721l11.015,10.88c0,0,51.843,11.056,61.589,14.076
						c14.62,4.53,27.694,13.369,24.742,39.169c-3.835,33.519-11.981,80.671-11.981,80.671l-39.821-10.872l6.249-65.833
						c0,0-61.001-8.596-73.423-15.773c-12.422-7.176-16.648-41.438-16.648-41.438"/>
					<path style="fill:none;stroke:#000000;stroke-linejoin:round;stroke-miterlimit:10;" d="M342.628,317.671
						c5.884-2.563,11.597-5.581,17.082-9.025"/>
					<g>
						<path style="fill:#D37F59;" d="M374.766,392.306l7.817,15.677c0,0,13.213,7.075,17.829,9.575
							c-2.19,0.543-65.397,1.296-65.382,0.897c0.122-3.238,0.788-5.142,0.64-9.393c-0.07-2.023-3.64-14.61-3.64-14.61"/>
						<path style="fill:#D1B0A1;" d="M335.273,409.062l46.885-1.932c0,0,20.552,11.463,23.708,13.919
							c3.157,2.457,5.426,5.68,5.549,8.799c-3.721,0-77.54,0-77.54,0S334.519,416.94,335.273,409.062z"/>
						
							<line style="fill:none;stroke:#9E796A;stroke-linejoin:round;stroke-miterlimit:10;" x1="334.191" y1="424.086" x2="408.973" y2="424.086"/>
						<path style="fill:none;stroke:#9E796A;stroke-linejoin:round;stroke-miterlimit:10;" d="M334.896,413.481
							c0,0,8.41,1.976,12.228,10.605"/>
						
							<line style="fill:none;stroke:#9E796A;stroke-linejoin:round;stroke-miterlimit:10;" x1="385.601" y1="409.062" x2="376.799" y2="413.481"/>
						
							<line style="fill:none;stroke:#9E796A;stroke-linejoin:round;stroke-miterlimit:10;" x1="391.516" y1="412.142" x2="382.714" y2="416.561"/>
					</g>
					<path style="fill:#361E14;" d="M224.986,273.243c0,0,5.78,48.874,29.926,48.874c24.147,0,46.606,0,46.606,0l27.752,82.819
						l48.456-7.155c0,0-27.466-85.485-33.039-99.909c-3.198-8.278-9.91-16.047-29.983-19.909
						c-20.073-3.862-33.958-4.721-33.958-4.721l-15.698-20.406"/>
					
						<line style="fill:none;stroke:#000000;stroke-linejoin:round;stroke-miterlimit:10;" x1="301.518" y1="322.118" x2="313.997" y2="322.118"/>
					
						<line style="fill:none;stroke:#5B392D;stroke-linejoin:round;stroke-miterlimit:10;" x1="325.038" y1="392.306" x2="373.507" y2="384.69"/>
					<path style="fill:none;stroke:#000000;stroke-linejoin:round;stroke-miterlimit:10;" d="M337.987,308.177
						c0.325,8.445-0.328,16.934-1.94,25.205"/>
					<path style="fill:none;stroke:#000000;stroke-linejoin:round;stroke-miterlimit:10;" d="M342.358,317.892
						c0.031,4.561,0.282,9.121,0.753,13.653"/>
					<path style="fill:none;stroke:#000000;stroke-linejoin:round;stroke-miterlimit:10;" d="M375.965,392.306
						c-8.301-25.669-27.273-84.071-31.277-94.433c-3.198-8.278-9.91-16.047-29.983-19.909c-20.073-3.862-30.921-4.721-30.921-4.721
						l-13.358-20.406"/>
					
						<line style="fill:none;stroke:#A0B3EA;stroke-width:1.5;stroke-miterlimit:10;" x1="296.936" y1="429.848" x2="418.707" y2="429.848"/>
				</g>
				<g>
					<g>
						<path style="fill:#D37F59;" d="M350.947,177.377c0,0,5.655-9.666,6.089-9.933c0.366-0.225,21.831-7.197,25.475-8.556
							c0.65-0.243,1.295-0.501,1.935-0.777c0.463-0.199,1.176-0.365,1.492-0.831c0.594-0.873,0.29-1.257-0.297-1.776
							c-2.042-1.805-6.621-0.215-9.032-0.062c-2.135,0.135-4.375-0.266-4.375-0.266s9.378-0.397,13.916-2.037
							c1.096-0.396,5.219-1.285,4.457-3.176c-0.142-0.353-0.336-0.877-1.478-1.399c-0.816-0.373-1.399-0.359-1.399-0.359
							s2.616-0.589,2.58-1.377c-0.068-1.465-2.716-2.421-3.517-2.407c-4.432,0.08-11.212,0.447-11.212,0.447
							s3.999-1.046,5.395-1.669c0.867-0.387,2.115-0.683,2.787-1.407c0.111-0.12,0.22-0.254,0.267-0.418
							c0.404-1.404-2.042-1.923-2.84-1.831c-3.047,0.353-5.981,1.157-8.957,1.869c-3.319,0.794-10.782-0.277-10.782-0.277
							s1.693-2.034,2.351-2.681c0.653-0.642,1.278-1.322,1.736-2.119c0.989-1.719,0.228-3.704-1.477-2.925
							c-4.548,2.077-9.523,3.893-13.994,6.136c-3.93,1.971-7.706,4.305-11.021,7.229c-3.424,3.02-5.932,6.884-8.488,10.642
							c-1.361,2-2.697,4.019-3.997,6.06"/>
						<path style="fill:none;stroke:#000000;stroke-linejoin:round;stroke-miterlimit:10;" d="M376.308,144.696
							c-2.165,0.305-8.104,0.858-8.104,0.858"/>
						<path style="fill:none;stroke:#000000;stroke-linejoin:round;stroke-miterlimit:10;" d="M388.032,148.189
							c-2.196,0.33-5.12,1.127-8.141,1.371c-4.677,0.378-9.135,0-9.135,0"/>
						<path style="fill:none;stroke:#000000;stroke-linejoin:round;stroke-miterlimit:10;" d="M372.441,155.099
							c-3.098,0.097-6.063-0.438-9.123-0.794c-2.345-0.273-4.713-0.351-7.071-0.234c-1.69,0.084-4.571-0.094-6.001,1.007"/>
					</g>
					<polyline style="fill:#FFEADF;" points="326.676,160.91 332.806,152.375 360.003,167.105 351.526,180.505 					"/>
					<path style="fill:#CE9989;" d="M246.329,156.919c0,0,13.925-2.839,19.568-1.358c5.642,1.48,13.822,8.29,22.586,15.544
						c8.764,7.254,18.519,15.694,18.519,15.694l22.233-30.588l29.093,15.793c0,0-23.18,42.653-28.292,48.987
						c-4.207,5.212-14.385,16.881-29.429,6.666c-15.045-10.215-31.174-23.686-31.174-23.686"/>
					<path style="fill:none;stroke:#AA7265;stroke-linejoin:round;stroke-miterlimit:10;" d="M353.424,173.302
						c0,0.717-0.573,1.298-1.28,1.298s-1.28-0.581-1.28-1.298c0-0.717,0.573-1.298,1.28-1.298S353.424,172.585,353.424,173.302z"/>
					
						<line style="fill:none;stroke:#AA7265;stroke-linejoin:round;stroke-miterlimit:10;" x1="351.294" y1="168.186" x2="345.624" y2="177.075"/>
					<path style="fill:#FFEADF;" d="M193.18,167.863l22.017-9.739c0,0,5.462,3.791,18.295,4.522
						c8.5,0.484,10.843-3.487,12.047-4.522c1.204-1.035,12.108,4.613,12.108,4.613l47.123,95.189
						c-4.596,15.851-79.893,16.75-79.893,16.75L193.18,167.863z"/>
					<path style="fill:none;stroke:#000000;stroke-linejoin:round;stroke-miterlimit:10;" d="M207.442,161.749
						c8.094,6.056,20.558,8.317,29.974,7.6c6.428-0.489,10.931-2.572,12.944-9.056"/>
					<path style="fill:none;stroke:#FFFFFF;stroke-miterlimit:10;" d="M190.594,181.869c28.149,0.067,57.853,1.877,84.365-7.139"/>
					<path style="fill:none;stroke:#FFFFFF;stroke-miterlimit:10;" d="M197.552,203.72c28.149,0.067,57.853,1.877,84.365-7.139"/>
					<path style="fill:none;stroke:#FFFFFF;stroke-miterlimit:10;" d="M204.84,225.2c28.149,0.067,57.853,1.877,84.365-7.139"/>
					<path style="fill:none;stroke:#FFFFFF;stroke-miterlimit:10;" d="M210.044,243.019c28.149,0.067,57.853,1.877,84.365-7.139"/>
					<path style="fill:none;stroke:#FFFFFF;stroke-miterlimit:10;" d="M219.12,259.916c28.896,0.105,59.388,2.954,86.603-11.235"/>
					<path style="fill:#CE9989;" d="M241.686,157.224c7.564,9.829,13.227,20.999,18.646,32.189
						c12.146,25.083,33.733,80.68,35.2,81.275c1.396,0.566,19.776-4.513,26.643-6.83c0,0-5.25-8.234-13.094-22.147
						c-7.844-13.913-29.807-60.62-34.121-66.981s-17.845-18.518-17.845-18.518L241.686,157.224z"/>
					<path style="fill:none;stroke:#AA7265;stroke-linejoin:round;stroke-miterlimit:10;" d="M260.13,178.606
						c1.663,3.228,3.265,6.49,4.845,9.754c12.146,25.083,35.199,81.274,35.199,81.274"/>
					<path style="fill:none;stroke:#AA7265;stroke-linejoin:round;stroke-miterlimit:10;" d="M255.413,179.516
						c1.298-0.462,14.804-2.071,13.982-5.965c-0.72-3.411-11.981-15.523-13.734-17.34"/>
					
						<line style="fill:none;stroke:#000000;stroke-linejoin:round;stroke-miterlimit:10;" x1="307.001" y1="186.799" x2="298.378" y2="198.962"/>
					<path style="fill:none;stroke:#AA7265;stroke-linejoin:round;stroke-miterlimit:10;" d="M284.774,193.424
						c-0.524,0.25-10.664,3.681-10.664,3.681s4.82,6.943,6.666,7.255c1.846,0.312,8.323-2.207,8.323-2.207"/>
					<path style="fill:none;stroke:#AA7265;stroke-linejoin:round;stroke-miterlimit:10;" d="M274.11,197.105
						c0,0,9.139,19.735,11.661,20.038c2.522,0.303,9.634-2.42,9.634-2.42"/>
					<path style="fill:none;stroke:#000000;stroke-linejoin:round;stroke-miterlimit:10;" d="M302.69,228.952
						c0,0-21.915-42.024-23.264-49.185"/>
					
						<line style="fill:none;stroke:#AA7265;stroke-linejoin:round;stroke-miterlimit:10;" x1="322.175" y1="165.923" x2="353.424" y2="181.304"/>
					<path style="fill:#CE9989;" d="M194.912,163.467l15.941-3.574c0,0,16.146,23.495,29.473,52.921
						c10.214,22.553,26.01,65.34,25.561,67.822c-0.449,2.482-35.46,10.118-39.648,8.889c-2.231-0.654-16.588-41.638-19.286-46.217
						c-2.698-4.578-23.899-48.014-23.899-48.014L194.912,163.467z"/>
					<path style="fill:none;stroke:#AA7265;stroke-linejoin:round;stroke-miterlimit:10;" d="M196.113,163.198
						c0,0,6.322,22.236,10.138,23.601c3.816,1.365,19.291-2.956,19.291-2.956"/>
					<path style="fill:none;stroke:#AA7265;stroke-linejoin:round;stroke-miterlimit:10;" d="M219.058,185.457
						c0,0,20.084,41.284,26.482,56.653s14.743,39.957,14.743,39.957"/>
					<path style="fill:#CE9989;stroke:#AA7265;stroke-linejoin:round;stroke-miterlimit:10;" d="M239.027,226.591
						c-1.045,1.788-19.694,7.416-21.549,6.743c-2.68-0.972-9.674-21.458-9.674-21.458l24.959-6.643
						C232.763,205.234,240.073,224.803,239.027,226.591z"/>
					<path style="fill:#CE9989;stroke:#AA7265;stroke-linejoin:round;stroke-miterlimit:10;" d="M232.763,205.234l-24.959,6.643
						c0,0,4.96,9.338,6.865,9.811c2.056,0.51,20.878-4.204,21.813-5.584C237.416,214.723,232.763,205.234,232.763,205.234z"/>
				</g>
				<g>
					<path style="fill:#D37F59;" d="M223.875,152.381c-6.1-3.485-11.791-9.204-13.939-16.097
						c-2.779-8.916,1.398-18.298,9.513-22.532c6.106-3.186,12.787-3.896,18.892-0.596c4.548,2.458,6.986,7.288,8.758,11.899
						c1.416,3.684,2.79,7.386,4.029,11.134c1.979,5.985,1.66,13.85-4.105,17.645C240.214,158.316,231.291,156.618,223.875,152.381z"
						/>
					<path d="M234.785,133.514c0.292,1.02-0.051,2.016-0.765,2.227c-0.714,0.21-1.53-0.446-1.822-1.466
						c-0.292-1.02,0.051-2.016,0.765-2.227C233.678,131.838,234.494,132.495,234.785,133.514z"/>
					<path d="M246.833,130.861c0.292,1.02-0.051,2.016-0.765,2.227c-0.714,0.21-1.53-0.446-1.822-1.466
						c-0.292-1.02,0.051-2.017,0.765-2.227C245.725,129.185,246.541,129.841,246.833,130.861z"/>
					<path style="fill:none;stroke:#000000;stroke-linejoin:round;stroke-miterlimit:10;" d="M227.389,131.686
						c1.645-2.238,4.34-3.645,7.094-3.703"/>
					<path style="fill:none;stroke:#000000;stroke-linejoin:round;stroke-miterlimit:10;" d="M241.353,126.494
						c1.802-0.746,3.838-1.313,5.67-0.645"/>
					<path style="fill:#D37F59;" d="M215.61,141.808l-3.253,17.93c0,0,6.999,4.264,18.294,5.685
						c9.127,1.148,13.051-1.727,13.051-1.727l1.316-11.746"/>
					<path style="fill:none;stroke:#000000;stroke-linejoin:round;stroke-miterlimit:10;" d="M239.735,127.392
						c0.96,2.163,2.193,4.273,3.681,6.296c0.592,0.805,1.245,1.681,1.007,2.55c-0.186,0.678-0.905,1.225-1.75,1.57
						c-0.845,0.344-1.815,0.515-2.771,0.682"/>
					<path style="fill:#FFFFFF;" d="M239.027,142.284c1.122,4.499,9.359,6.824,7.686-1.462L239.027,142.284z"/>
					<path style="fill:none;stroke:#000000;stroke-linejoin:round;stroke-miterlimit:10;" d="M229.752,154.504
						c5.164,2.06,10.515,2.255,15.327,0.341"/>
					<path style="fill:#272224;" d="M248.16,115.869c-0.091-0.1-0.172-0.208-0.236-0.329c-0.347-0.66-0.059-1.479,0.329-2.115
						c0.388-0.637,0.887-1.247,0.985-1.989c0.186-1.42-1.167-2.565-2.49-3.066c-1.323-0.502-2.821-0.71-3.867-1.672
						c-1.212-1.115-1.476-2.917-2.262-4.371c-0.84-1.554-2.339-2.727-4.036-3.157c-1.846-0.468-3.797-0.076-5.618,0.484
						c-2.203,0.677-4.332,1.601-6.336,2.748c-1.738,0.994-3.425,2.175-5.372,2.622c-1.225,0.281-2.505,0.258-3.722,0.571
						c-1.406,0.361-2.661,1.152-3.891,1.931c-3.798,2.407-5.794,6.061-7.21,10.303c-0.239,0.715-0.46,1.447-0.862,2.083
						c-0.457,0.723-1.122,1.28-1.702,1.905c-3.018,3.249-3.986,10.155-2.373,14.269c0.541,1.38,1.408,2.606,2.36,3.734
						c1.778,2.108,4.119,3.793,6.241,5.599c2.246,1.912,3.63,4.29,5.509,6.551c0.071,0.085,0.157,0.178,0.267,0.176
						c0.108-0.003,0.19-0.096,0.255-0.183c1.353-1.792,2.069-4.01,2.385-6.243c0.421-2.978-0.224-6.064,0.69-8.939
						c0.837-2.633,1.83-5.274,2.485-7.971c0.168-0.693,0.327-1.403,0.696-2.01c1.476-2.432,5.557-2.228,6.782-4.8
						c0.255-0.536,0.4-1.204,0.924-1.473c0.281-0.144,0.61-0.135,0.924-0.139c2.636-0.031,5.236-1.264,6.949-3.295
						c1.327,0.79,2.903,1.143,4.435,0.993c0.82-0.08,1.823-0.381,2.552,0.105c0.589,0.393,1.115,1.41,1.519,1.992
						c0.349,0.504,2.861,3.993,2.521,4.497c0.973-1.438,1.962-2.91,2.431-4.588c0.332-1.188,0.339-2.604-0.494-3.505
						C248.688,116.329,248.392,116.124,248.16,115.869z"/>
					<path style="fill:none;stroke:#473F42;stroke-linejoin:round;stroke-miterlimit:10;" d="M227.773,120.444
						c0.453-0.345,0.589-0.96,0.75-1.511c0.381-1.303,1.074-2.511,2.004-3.491"/>
					<path style="fill:none;stroke:#473F42;stroke-linejoin:round;stroke-miterlimit:10;" d="M235.983,117.086
						c0.887-1.406,1.633-2.904,2.223-4.463"/>
					<path style="fill:none;stroke:#473F42;stroke-linejoin:round;stroke-miterlimit:10;" d="M242.512,117.69
						c1.403-0.077,2.775-0.637,3.839-1.567"/>
					<path style="fill:none;stroke:#473F42;stroke-linejoin:round;stroke-miterlimit:10;" d="M235.874,106.788
						c-0.014,1.68-0.952,3.322-2.384,4.169c-0.872,0.516-1.201,1.414-1.635,2.338"/>
					<path style="fill:none;stroke:#473F42;stroke-linejoin:round;stroke-miterlimit:10;" d="M203.378,120.168
						c4.092-0.849,8.464-0.236,12.175,1.706"/>
					<path style="fill:none;stroke:#473F42;stroke-linejoin:round;stroke-miterlimit:10;" d="M208.774,125.748
						c-0.61,1.492-1.074,3.065-1.147,4.679c-0.112,2.442,0.68,4.856,1.858,6.988c1.178,2.133,2.734,4.022,4.281,5.897"/>
					<path style="fill:none;stroke:#473F42;stroke-linejoin:round;stroke-miterlimit:10;" d="M203.996,136.711
						c0.811,2.181,2.532,3.997,4.649,4.907"/>
					<g>
						<path style="fill:#D37F59;" d="M212.913,136.571c-3,1.506-2.917,6.312-1.489,8.871c0.894,1.601,2.455,2.858,4.011,3.754
							c1.914,1.102,3.473,1.287,5.599,0.668c0.61-0.178,1.233-0.366,1.743-0.749c2.906-2.179-1.275-7.242-2.563-9.199
							c-0.74-1.124-1.565-2.225-2.659-2.998C216.037,135.845,214.521,135.764,212.913,136.571z"/>
						<path style="fill:none;stroke:#000000;stroke-linejoin:round;stroke-miterlimit:10;" d="M213.898,141.631
							c2.786,0.437,4.466,1.359,7.16,2.201"/>
						<path style="fill:none;stroke:#000000;stroke-linejoin:round;stroke-miterlimit:10;" d="M212.014,137.031
							c0.99-0.91,2.431-1.246,3.743-0.987c1.312,0.259,2.485,1.076,3.301,2.149"/>
						<path style="fill:none;stroke:#000000;stroke-linejoin:round;stroke-miterlimit:10;" d="M216.724,149.869
							c0.722,0.309,1.496,0.49,2.278,0.532c1.12,0.061,2.277-0.173,3.215-0.797c0.941-0.626,1.626-1.635,1.865-2.75"/>
					</g>
				</g>
			</g>
			<g>
				<g>
					<g>
						<path style="fill:#D37F59;" d="M220.694,252.837c8.992,3.772,19.175,7.847,24.407,13.153
							c3.065,3.109,5.928,6.845,6.973,11.216c0.809,3.384,1.007,5.189,1.402,8.654c0.091,0.794,0.081,2.659-0.272,3.367
							c-0.353,0.708-1.502,0.292-1.502,0.292s0.151,3.709-0.682,3.988c-1.55,0.52-2.502-0.519-2.992-0.973
							c-1.983,0.697-2.925,1.292-4.478-0.45c0.121,0.463-0.713,0.91-1.186,0.9c-0.473-0.01-2.506-0.158-2.875-0.45
							c-2.158-1.709-3.843-4.026-6.044-5.701c-1.625-1.237-3.422-2.638-5.247-3.517c-1.91-0.919-4.007-1.297-6.028-1.842
							c-3.867-1.043-7.686-2.825-10.377-5.932c-0.853-0.985-1.585-2.093-2.548-2.958c-0.973-0.873-2.141-1.461-3.294-2.04"/>
						<path style="fill:none;stroke:#000000;stroke-linejoin:round;stroke-miterlimit:10;" d="M243.55,292.084
							c0.075-0.565-3.223-5.559-4.378-6.997c-2.063-2.568-6.409-5.88-6.409-5.88"/>
						<path style="fill:none;stroke:#000000;stroke-linejoin:round;stroke-miterlimit:10;" d="M248.028,292.534
							c0,0-2.648-7.617-4.468-10.92c-1.82-3.303-6.02-6.937-6.02-6.937"/>
						<path style="fill:none;stroke:#000000;stroke-linejoin:round;stroke-miterlimit:10;" d="M251.702,289.519
							c0,0-1.279-8.177-2.604-10.781c-1.325-2.604-7.445-9.733-7.445-9.733"/>
					</g>
					<polyline style="fill:#FFEADF;" points="206.732,276.978 214.426,281.372 230.756,257.151 219.025,251.251 					"/>
					<path style="fill:#CE9989;" d="M194.912,163.467c0,0-1.39,0.213-4.523,1.19c-10.279,3.206-16.496,14.237-20.755,24.418
						c-4.264,10.19-8.326,20.471-11.856,30.949c-4.5,13.355-12.568,31.238,1.192,42.023c3.855,3.022,9.413,5.424,15.079,7.248
						c13.653,4.397,34.052,11.341,34.052,11.341l18.137-26.188l-30.133-14.765l11.996-40.354"/>
					
						<line style="fill:none;stroke:#AA7265;stroke-linejoin:round;stroke-miterlimit:10;" x1="213.223" y1="273.243" x2="202.385" y2="269.296"/>
					
						<ellipse style="fill:none;stroke:#AA7265;stroke-linejoin:round;stroke-miterlimit:10;" cx="206.251" cy="274.924" rx="1.28" ry="1.298"/>
				</g>
				
					<line style="fill:none;stroke:#AA7265;stroke-linejoin:round;stroke-miterlimit:10;" x1="215.922" y1="249.721" x2="197.146" y2="276.872"/>
				
					<line style="fill:none;stroke:#000000;stroke-linejoin:round;stroke-miterlimit:10;" x1="199.296" y1="228.952" x2="205.941" y2="206.601"/>
				
					<line style="fill:none;stroke:#000000;stroke-linejoin:round;stroke-miterlimit:10;" x1="207.532" y1="245.305" x2="226.239" y2="254.449"/>
				<path style="fill:none;stroke:#000000;stroke-linejoin:round;stroke-miterlimit:10;" d="M196.113,239.545
					c-4.099-0.963-10.305-2.247-14.505-1.985c-2.351,0.146-4.723,0.495-6.885,1.444"/>
			</g>
			<g>
				
					<line style="fill:none;stroke:#000000;stroke-linejoin:round;stroke-miterlimit:10;" x1="256.055" y1="126.345" x2="272.923" y2="115.913"/>
				
					<line style="fill:none;stroke:#000000;stroke-linejoin:round;stroke-miterlimit:10;" x1="260.118" y1="134.928" x2="280.598" y2="129.264"/>
				
					<line style="fill:none;stroke:#000000;stroke-linejoin:round;stroke-miterlimit:10;" x1="261.479" y1="143.293" x2="280.546" y2="145.696"/>
			</g>
		</g>
		<g>
			<g>
				<path style="fill:#628E6A;" d="M134.172,382.189c-0.238-22.941-6.294-45.569-5.884-68.508
					c0.448-25.052,8.862-49.894,23.681-69.916c0.545-0.737,1.332-1.554,2.205-1.304c0.506,0.145,0.847,0.614,1.123,1.069
					c1.568,2.582,2.296,5.592,2.838,8.576c2.569,14.146,1.382,28.978-3.403,42.516c4.968,2.579,8.221,7.952,9.015,13.565
					c0.794,5.613-0.669,11.393-3.337,16.373c-0.648,1.209-1.392,2.519-1.143,3.873c0.179,0.973,0.842,1.765,1.388,2.584
					c2.319,3.48,2.694,8.026,1.782,12.125c-0.912,4.1-2.993,7.831-5.285,11.329c-4.669,7.128-10.334,13.582-16.771,19.106"/>
				<path style="fill:#7EA882;" d="M138.525,378.212c-1.005-4.59,1.435-9.168,3.897-13.15c6.06-9.802,12.898-19.253,21.567-26.761
					s19.338-12.999,30.689-13.928c1.38-0.113,2.934-0.098,3.929,0.881c1.513,1.489,0.747,4.079-0.298,5.937
					c-2.416,4.3-5.836,8.012-9.899,10.743c-0.938,0.631-1.964,1.272-2.424,2.315c-0.353,0.802-0.312,1.717-0.349,2.595
					c-0.287,6.872-6.497,12.93-13.263,12.938c0.931,3.88-2.587,7.283-5.843,9.516c-5.441,3.731-11.225,6.946-17.251,9.589"/>
				<path style="fill:none;stroke:#000000;stroke-linejoin:round;stroke-miterlimit:10;" d="M152.946,361.118
					c9.831-13,23.345-23.088,38.489-28.733"/>
				<path style="fill:#7EA882;" d="M105.43,377.932c-4.254-7.947-14.301-15.92-18.534-21.048c-4.232-5.128-7.319-13.077,1.716-14.81
					c-11.939-2.419-21.742-12.242-23.498-23.547c-0.358-2.304-0.392-4.739,0.622-6.865s3.285-3.855,5.772-3.751
					c-2.944-6.347-4.676-13.183-5.089-20.091c-0.122-2.04-0.007-4.363,1.635-5.712c1.302-1.07,3.235-1.196,4.926-0.839
					c2.176,0.459,4.111,1.597,5.943,2.787c15.818,10.28,27.18,25.818,34.14,42.615c6.961,16.796,9.769,34.865,10.882,52.848"/>
				<path style="fill:none;stroke:#000000;stroke-linejoin:round;stroke-miterlimit:10;" d="M79.577,295.418
					c14.957,21.011,26.873,44.255,35.245,68.755"/>
				<path style="fill:#628E6A;" d="M129.555,384.885c-6.192-4.897-11.521-11.177-15.589-18.37c-0.741-1.311-1.449-2.673-1.801-4.177
					c-0.351-1.503-0.31-3.182,0.387-4.523c0.697-1.341,2.139-2.236,3.481-1.886c-0.862-1.712-1.842-3.349-2.926-4.891
					c-1.534-2.183-3.29-4.197-4.491-6.631c-2.181-4.421-3.387-10.607-0.694-15.107c0.649-1.085,1.532-2.037,1.866-3.291
					c0.335-1.256,0.064-2.605-0.224-3.875c-2.178-9.63-5.224-18.995-7.251-28.667c-2.027-9.672-3.014-19.846-1.018-29.527
					c0.293-1.421,0.671-2.872,1.5-3.992c0.829-1.12,2.219-1.828,3.444-1.359c0.671,0.257,1.208,0.822,1.716,1.378
					c14.644,16.049,23.191,38.174,27.12,60.781c3.929,22.607,3.558,45.867,2.531,68.876"/>
				<path style="fill:none;stroke:#000000;stroke-linejoin:round;stroke-miterlimit:10;" d="M129.741,297.119
					c5.01,20.194,8.652,49.381,9.475,65.526"/>
				<path style="fill:#7EA882;" d="M130.661,379.52c-4.38-3.135-8.451-6.859-11.26-11.496c-2.809-4.637-4.267-10.275-3.228-15.616
					c0.744-3.825,3.766-7.904,7.544-7.233c0.346,0.061,0.704,0.162,1.042,0.063c0.657-0.191,0.893-0.994,1.05-1.671
					c1.497-6.481,5.294-12.387,10.532-16.382c3.276-2.499,8.109-4.164,11.279-1.527c6.642,5.527,3.705,18.005,3.246,25.363
					c1.616-1.028,7.09-1.542,8.585-0.339c1.495,1.203,2.482,3.025,2.873,4.922c1.639,7.937-4.424,18.383-11.473,22.749"/>
				<path style="fill:none;stroke:#000000;stroke-linejoin:round;stroke-miterlimit:10;" d="M152.112,350.408
					c1.538-0.289,3.098-0.579,4.658-0.459c1.56,0.12,3.147,0.7,4.179,1.895c1.34,1.552,1.508,3.805,1.396,5.866
					c-0.349,6.447-2.839,12.755-6.971,17.659"/>
				<path style="fill:none;stroke:#000000;stroke-linejoin:round;stroke-miterlimit:10;" d="M124.686,345.253
					c3.592-0.316,7.103,1.556,9.636,4.165c2.533,2.609,4.252,5.902,5.927,9.148"/>
				<path style="fill:none;stroke:#000000;stroke-linejoin:round;stroke-miterlimit:10;" d="M142.866,364.173
					c1.269,3.195,2.072,6.644,2.363,10.152"/>
				<path style="fill:none;stroke:#000000;stroke-linejoin:round;stroke-miterlimit:10;" d="M154.68,294.31
					c-2.795,1.342-5.063,3.633-6.836,6.201c-1.774,2.568-3.096,5.422-4.408,8.261"/>
			</g>
			<path style="fill:#FFF8DC;" d="M175.396,373.703c0,0,2.13,36.204-14.582,56.144h-54.328
				c-16.712-19.941-14.582-56.144-14.582-56.144H175.396z"/>
			<g>
				<defs>
					<path id="SVGID_1_" d="M175.396,373.703c0,0,2.13,36.204-14.582,56.144h-54.328c-16.712-19.941-14.582-56.144-14.582-56.144
						H175.396z"/>
				</defs>
				<clipPath id="SVGID_00000137822583418415332070000009797953660534537604_">
					<use xlink:href="#SVGID_1_"  style="overflow:visible;"/>
				</clipPath>
				<g style="clip-path:url(#SVGID_00000137822583418415332070000009797953660534537604_);">
					<path style="fill:none;stroke:#F2E3B3;stroke-width:1.5;stroke-miterlimit:10;" d="M80.16,381.467
						c5.126-1.478,10.791,0.053,14.935,4.035c2.508,2.41,3.381,5.377,7.027,5.742c2.173,0.218,4.357-0.302,6.534-0.168
						c2.178,0.134,4.533,1.136,5.539,3.443c0.634,1.453,0.634,3.197,1.207,4.685c1.113,2.887,3.965,4.026,6.19,5.771
						c2.477,1.942,4.523,5.091,5.1,8.615c0.464,2.84-0.86,5.547-2.892,6.937c-4.061,2.778-13.759,1.494-19.97,0.225
						c-4.831-0.987-10.479-1.832-14.392,2.515"/>
					<path style="fill:none;stroke:#F2E3B3;stroke-width:1.5;stroke-miterlimit:10;" d="M103.296,365.619
						c1.858,3.548,3.73,7.119,6.068,10.185c2.338,3.066,5.195,5.632,8.459,6.723c4.858,1.623,10.265-0.096,14.877,2.417
						c3.589,1.956,6.045,6.126,9.039,9.294c2.24,2.371,4.901,4.243,7.8,4.749c2.899,0.506,6.05-0.505,8.076-3.163
						c3.695-4.846,2.764-13.375,6.542-18.118c2.016-2.531,5.158-3.648,6.525-6.792c0.624-1.437,0.781-3.112,0.926-4.74
						c0.418-4.695,0.822-9.575-0.404-14.041"/>
					<path style="fill:none;stroke:#F2E3B3;stroke-width:1.5;stroke-miterlimit:10;" d="M181.164,383.948
						c-4.583-0.049-9.071,3.789-11.066,9.463c-0.933,2.652-1.347,5.611-2.326,8.231c-2.249,6.019-7.1,9.32-11.852,11.076
						c-7.599,2.809-16.3,3.744-21.527,11.93c-6.639,10.397,3.454,20.939,11.441,23.782c4.895,1.742,10.041,1.671,15.072,0.984
						c4.712-0.643,9.435-1.837,13.773-4.451c4.338-2.613,8.292-6.742,10.738-12.319"/>
				</g>
			</g>
			
				<line style="fill:none;stroke:#A0B3EA;stroke-width:1.5;stroke-miterlimit:10;" x1="180.784" y1="429.848" x2="95.636" y2="429.848"/>
			
				<line style="fill:none;stroke:#A0B3EA;stroke-width:1.5;stroke-miterlimit:10;" x1="210.044" y1="429.848" x2="192.661" y2="429.848"/>
		</g>
	</g>
	<g>
		<g>
			<path style="fill:#9AB79C;" d="M556.374,448.865c-5.977-27.421-6.101-63.492-5.111-91.144
				c0.54-15.081,0.861-32.807,14.311-44.024c1.624-1.355,3.492-2.632,5.77-3.023c3.691-0.633,7.579,1.285,9.834,3.887
				c2.256,2.602,3.226,5.774,4.148,8.859c9.224-14.492,17.882-30.051,28.912-42.737c12.408-14.271,27.664-26.649,45.525-36.193
				c2.141-1.144,4.596-2.295,7.146-1.848c3.946,0.692,6.179,4.571,6.224,7.928c0.327,24.22-18.581,57.446-41.24,80.799
				c6.989,4.05,9.56,11.902,8.42,18.762c-1.14,6.859-5.311,12.991-9.407,18.942c-16.438,23.885-32.876,47.769-49.314,71.654"/>
			<path style="fill:none;stroke:#000000;stroke-linejoin:round;stroke-miterlimit:10;" d="M666.721,253.243
				c-46.175,50.93-82.481,110.774-106.322,175.254"/>
			<path style="fill:#9AB79C;" d="M563.841,443.891c21.15-43.556,54.855-82.389,97.122-111.898c4.3-3.002,8.763-5.937,13.71-7.995
				c2.188-0.91,5.578-2.526,8.048-2.389c9.22,0.51,0.538,23.797-1.493,28.008c-5.843,12.11-15.136,22.618-24.437,32.64
				c5.593-0.707,9.258,5.429,8.734,10.355c-0.803,7.563-7.039,14.025-14.495,17.91c-7.456,3.885-16.076,5.62-24.538,7.3
				c1.192,8.656-5.334,17.004-13.747,21.67c-8.413,4.666-18.456,6.396-28.238,8.037"/>
			<path style="fill:#628E6A;" d="M541.747,444.545c-14.025-28.78-14.218-62.186-12.439-94.151
				c0.478-8.598,1.087-17.247,3.219-25.59c2.131-8.344,5.883-16.441,11.921-22.581c0.72-0.733,1.555-1.475,2.579-1.562
				c2.048-0.174,3.271,2.186,3.873,4.152c2.774,9.059,4.945,18.508,5.551,27.932c0.675,10.5,0.616,21.048-0.18,31.54
				c0.937-1.326,2.814-1.755,4.376-1.313c1.563,0.442,2.833,1.603,3.791,2.915c3.093,4.236,4.047,9.693,4.591,14.792
				c0.6,5.62,1.065,11.333,1.288,16.981c0.322,8.18-0.238,16.394-1.663,24.455c-1.43,8.086-4.159,15.73-6.302,23.63"/>
			<path style="fill:none;stroke:#000000;stroke-linejoin:round;stroke-miterlimit:10;" d="M631.881,354.866
				c-31.191,33.151-54.435,72.499-67.641,114.503"/>
			<path style="fill:none;stroke:#000000;stroke-linejoin:round;stroke-miterlimit:10;" d="M656.934,382.03
				c-3.99,0.122-7.92,1.509-10.963,3.868"/>
			<path style="fill:none;stroke:#000000;stroke-linejoin:round;stroke-miterlimit:10;" d="M626.314,417.694
				c-2.151-3.415-7.438-2.488-10.412-0.876c-2.539,1.375-4.577,3.523-6.344,5.807"/>
			<path style="fill:none;stroke:#000000;stroke-linejoin:round;stroke-miterlimit:10;" d="M675.315,330.934
				c-38.944,26.632-67.336,64.477-89.436,103.567"/>
			<path style="fill:none;stroke:#000000;stroke-linejoin:round;stroke-miterlimit:10;" d="M540.034,330.004
				c-3.413,40.198,2.14,80.556,7.68,120.517"/>
			<rect x="516.985" y="441.277" style="fill:#FFF8DC;" width="106.753" height="34.377"/>
		</g>
		<g>
			<g>
				<g>
					<g>
						<path style="fill:#C67761;" d="M435.478,438.374c-5.456,12.802-17.703,19.648-25.943,24.591c2.21,0.545,64.03,1.3,63.963,0.9
							c-0.544-3.248-1.038-6.008-1.452-10.272c-0.197-2.029,1.228-13.804,1.228-13.804"/>
						<path style="fill:#1E1A1C;" d="M472.737,458.052c0,0-23.944-0.11-38.633-1.541c-6.652-0.648-8.367-6.106-10.418-4.005
							c-6.579,6.739-18.052,11.684-20.812,14.148c-2.76,2.464-3.622,8.639-2.468,8.639c3.634,0,42.209,0,44.286,0
							c2.667-1.29,5.769-3.68,5.769-3.68h6.744l0.292,3.68c10.264,0,16.694,0,16.694,0S474.508,465.955,472.737,458.052z"/>
					</g>
					<path style="fill:#1B1B38;" d="M560.058,336.635c0,0-66.554-0.184-85.575,0c-13.185,0.127-27.908,4.849-33.051,30.52
						c-5.143,25.671-11.296,80.807-11.296,80.807l44.643,3.214l14.798-58.3c0,0,41.551,6.248,65.307,4.409
						c15.25-1.181,25.393-25.967,23.013-43.204"/>
					
						<line style="fill:none;stroke:#000000;stroke-linejoin:round;stroke-miterlimit:10;" x1="489.577" y1="392.876" x2="481.403" y2="392.876"/>
					<line style="fill:none;stroke:#252549;stroke-miterlimit:10;" x1="431.89" y1="432.98" x2="478.115" y2="438.031"/>
				</g>
				<g>
					<g>
						<path style="fill:#EFA084;" d="M401.209,438.374c-7.427,12.802-21.41,19.648-30.86,24.591c2.305,0.545,68.554,1.3,68.531,0.9
							c-0.185-3.248-0.376-6.008-0.297-10.272c0.038-2.029,3.013-13.804,3.013-13.804"/>
						<path style="fill:#42393D;" d="M438.776,458.052c0,0-25.681-0.11-41.269-1.541c-7.059-0.648-8.23-6.106-10.688-4.005
							c-7.888,6.739-20.807,11.684-24.072,14.148c-3.264,2.464-4.947,8.639-3.71,8.639c3.9,0,45.296,0,47.525,0
							c3.021-1.29,6.643-3.68,6.643-3.68h7.237l-0.139,3.68c11.014,0,19.99,0,19.99,0S439.706,465.955,438.776,458.052z"/>
						<line style="fill:none;stroke:#1E1A1C;stroke-miterlimit:10;" x1="440.036" y1="471.614" x2="359.796" y2="470.829"/>
					</g>
					<path style="fill:#252549;" d="M535.679,336.635c0,0-66.531-0.184-85.575,0c-13.2,0.127-28.503,4.849-36.798,30.52
						c-8.295,25.671-21.218,80.807-21.218,80.807l47.811,5.089l18.393-60.175c0,0,81.743,6.248,105.725,4.409
						c15.395-1.181,33.103-36.768,32.839-54.005"/>
					
						<line style="fill:none;stroke:#000000;stroke-linejoin:round;stroke-miterlimit:10;" x1="458.292" y1="392.876" x2="450.118" y2="392.876"/>
					<path style="fill:none;stroke:#434360;stroke-miterlimit:10;" d="M400.57,448.865c0,0,19.746-75.526,22.422-81.709
						c2.675-6.183,11.839-23.907,28.522-22.387c16.683,1.519,84.877,1.406,84.877,1.406l13.344-9.539"/>
					<line style="fill:none;stroke:#434360;stroke-miterlimit:10;" x1="395.681" y1="432.98" x2="444.385" y2="438.374"/>
				</g>
			</g>
			<g>
				<polyline style="fill:#EFA084;" points="568.179,222.285 566.851,240.161 602.022,241.428 600.806,217.417 				"/>
				<path style="fill:#EFA084;" d="M561.15,197.559c-2.915,4.861-6.346,10.315-6.626,16.141c-0.295,6.145,4.188,10.11,9.921,11.293
					c9.29,1.916,19.505-0.821,26.653-7.041c9.791-8.521,12.282-26.6-0.127-34.22c-4.925-3.024-10.972-2.823-16.367-1.288
					c-5.261,1.497-8.444,6.27-10.927,10.808C562.978,194.532,562.093,195.987,561.15,197.559z"/>
				<path style="fill:#643021;" d="M605.915,181.874c-1.203-1.333-2.608-2.464-4.209-3.29c-1.605-0.828-3.388-1.348-4.818-2.453
					c-1.439-1.112-2.46-3.221-4.139-3.972c-1.044-0.467-2.532-0.346-3.661-0.448c-3.002-0.271-6.038,0.334-7.21,3.479
					c-0.1,0.267-0.206,0.578-0.473,0.68c-0.251,0.097-0.526-0.039-0.763-0.167c-3.443-1.847-7.47-2.585-11.343-2.078
					c-0.622,0.081-1.258,0.201-1.784,0.543c-1.615,1.049-1.384,3.442-0.961,5.321c-1.962-0.842-4.529,0.366-5.13,2.415
					c-0.488,1.665,0.244,3.505,1.458,4.744c1.215,1.239,2.842,1.979,4.466,2.592c4.38,1.654,9.031,2.585,13.71,2.745
					c-1.973,2.159-2.979,5.17-2.701,8.082s1.837,5.677,4.183,7.424c0.808,0.601,1.732,1.117,2.25,1.98
					c0.67,1.117,0.495,2.527,0.298,3.815c-0.344,2.252-0.688,4.504-1.032,6.755c-0.116,0.758-0.224,1.572,0.111,2.262
					c0.578,1.191,2.134,1.446,3.456,1.536c5.021,0.342,10.076,0.668,15.031-0.35c1.746-0.358,3.513-1.253,4.306-2.85
					c0.319-0.643,0.46-1.357,0.579-2.064c0.505-2.993,0.702-6.104,1.999-8.849c0.561-1.187,1.321-2.285,1.733-3.531
					c1.092-3.302,0.608-8.091,0.08-11.47C610.65,190.239,609.002,185.295,605.915,181.874z"/>
				<path style="fill:none;stroke:#3D1D18;stroke-miterlimit:10;" d="M566.851,179.857c2.324,0.747,4.767,1.125,7.208,1.116"/>
				<path style="fill:none;stroke:#3D1D18;stroke-miterlimit:10;" d="M581.206,175.744c2.831,1.131,5.907,1.643,8.951,1.489"/>
				<path style="fill:none;stroke:#3D1D18;stroke-miterlimit:10;" d="M579.467,181.082c5.287,0.807,10.783,1.695,15.164,4.762"/>
				<path style="fill:none;stroke:#3D1D18;stroke-miterlimit:10;" d="M607.161,199.512c0.182,2.266,0.356,4.605-0.373,6.758
					c-0.556,1.643-1.604,3.069-2.343,4.638c-0.959,2.036-1.388,4.319-1.233,6.565"/>
				<path style="fill:none;stroke:#3D1D18;stroke-miterlimit:10;" d="M599.672,196.696c0.135,1.881,0.205,3.829-0.472,5.589
					c-0.822,2.137-2.656,3.76-3.505,5.886c-0.719,1.799-0.673,3.8-0.616,5.737"/>
				<path style="fill:none;stroke:#3D1D18;stroke-miterlimit:10;" d="M583.907,196.143c-1.077,3.855-0.054,8.229,2.622,11.206"/>
				<path style="fill:none;stroke:#3D1D18;stroke-miterlimit:10;" d="M581.123,191.959c6.956-4.002,15.404-4.2,23.425-3.941"/>
				<g>
					<path style="fill:#EFA084;" d="M582.994,203.191c3.169,0.714,4.32,5.201,3.648,7.907c-0.421,1.693-1.548,3.218-2.764,4.407
						c-1.495,1.462-2.895,1.991-5.026,1.902c-0.611-0.025-1.238-0.059-1.809-0.298c-3.254-1.361-0.667-7.024,0.029-9.139
						c0.4-1.215,0.884-2.426,1.702-3.395C579.909,203.23,581.295,202.809,582.994,203.191z"/>
					<path style="fill:none;stroke:#000000;stroke-linejoin:round;stroke-miterlimit:10;" d="M583.372,208.12
						c-2.475,1.043-3.798,2.285-6.083,3.684"/>
					<path style="fill:none;stroke:#000000;stroke-linejoin:round;stroke-miterlimit:10;" d="M580.219,203.351
						c-1.151,0.541-2.032,1.569-2.515,2.754"/>
					<path style="fill:none;stroke:#000000;stroke-linejoin:round;stroke-miterlimit:10;" d="M583.878,215.505
						c-0.591,0.452-2.288,1.718-3.003,1.937c-1.024,0.313-2.157,0.36-3.187-0.005c-1.033-0.366-1.927-1.148-2.434-2.13"/>
				</g>
				<path style="fill:none;stroke:#000000;stroke-linejoin:round;stroke-miterlimit:10;" d="M567.839,225.792
					c2.632-0.139,5.245-0.628,7.749-1.452"/>
				<path style="fill:#EFA084;stroke:#000000;stroke-linejoin:round;stroke-miterlimit:10;" d="M563.042,195.395
					c-1.394,2.575-4.546,5.212-6.18,6.015c-1.281,0.63-1.767,1.134-1.213,2.523c0.457,1.146,1.421,2.112,2.615,2.518"/>
				<path style="fill:#FFFFFF;" d="M562.342,209.934h-5.662c0,0-0.21,4.823,2.516,4.404
					C561.923,213.919,562.342,209.934,562.342,209.934z"/>
				<path style="fill:none;stroke:#000000;stroke-linejoin:round;stroke-miterlimit:10;" d="M567.871,193.947
					c1.466,0.368,2.796,1.206,3.832,2.307s1.783,2.456,2.253,3.893"/>
				<path d="M568.411,201.043c-0.482,0.973-1.427,1.487-2.112,1.148c-0.685-0.339-0.849-1.403-0.368-2.376
					c0.482-0.973,1.427-1.487,2.112-1.148C568.728,199.006,568.893,200.07,568.411,201.043z"/>
			</g>
			<g>
				<g>
					<g>
						<path style="fill:#EFA084;" d="M544.017,238.849c0,0-7.464-14.65-13.02-21.376c-3.453-4.18-6.685-7.158-10.912-10.613
							c-2.036-1.665-4.1-3.562-6.339-4.988c-1.068-0.68-1.39-1.146-2.308,0.033c-0.627,0.805-0.522,2.16-0.242,3.054
							c1.134,3.611,7.072,8.852,7.072,8.852c-1.579,0.482-4.651,1.871-5.619,2.818c-0.931,0.911-1.304,2.526-1.141,3.799
							c-1.312,0.203-2.405,0.847-2.921,1.999c-0.255,0.57-0.399,1.174-0.356,1.801c0.015,0.219,0.235,1.576,0.562,1.586
							c-1.156-0.035-2.141,0.895-2.446,1.926c-0.305,1.03-0.081,2.127,0.202,3.164c0.826,3.016,3.005,5.233,5.452,6.207
							c0.684,0.272,1.476,0.379,2.181,0.161c0.706-0.218,1.29-0.863,1.204-1.547c2.044,4.456,2.812,10.511,6.772,13.681
							c1.94,1.553,5.924,2.53,6.821,4.752"/>
						<path style="fill:none;stroke:#000000;stroke-linejoin:round;stroke-miterlimit:10;" d="M511.508,220.427
							c0,0,1.208,5.486,2.479,7.014c1.271,1.527,3.913,2.488,5.714,1.949c1.801-0.539,2.643-4.069,2.643-4.069
							s-2.674-1.846-2.721-2.044c-0.047-0.198-1.502-5.261-1.502-5.261"/>
						<path style="fill:none;stroke:#000000;stroke-linejoin:round;stroke-miterlimit:10;" d="M517.893,213.874
							c1.896,1.396,3.435,3.232,4.442,5.299"/>
						<path style="fill:none;stroke:#000000;stroke-linejoin:round;stroke-miterlimit:10;" d="M508.576,225.603
							c0.856,2.455,4.063,11.695,8.12,8.026c1.156-1.046,1.937-2.647,2.449-4.065"/>
						<path style="fill:#EFA084;stroke:#000000;stroke-miterlimit:10;" d="M533.67,224.151c-1.808-2.31-4.713-3.784-7.75-4.577
							c-3.037-0.793-6.236-0.971-9.403-1.143c-0.243-0.013-0.502-0.023-0.716,0.083c-0.247,0.123-0.377,0.375-0.446,0.619
							c-0.518,1.826,1.462,3.384,3.323,4.233c1.346,0.615,2.755,1.122,4.205,1.514c0.459,0.124,0.944,0.248,1.279,0.553
							c0.263,0.24,0.403,0.566,0.524,0.886c0.898,2.357,1.227,4.859,1.87,7.284c0.643,2.425,1.665,4.864,3.658,6.595"/>
					</g>
					<path style="fill:#EFA084;" d="M523.566,248.243c0,0,23.422,56.873,34.357,63.468c12.446,7.507,27.822-8.306,27.822-8.306
						l-12.893-32.595l-6.248,0.968l-25.294-38.03"/>
				</g>
				<path style="fill:#FFFFFF;" d="M570.631,241.412h34.233c0,0,5.303,20.566,4.597,44.348
					c-1.089,36.671-24.044,83.462-24.044,83.462s-75.455-32.541-75.457-32.587c-0.002-0.046,30.235-55.962,33.04-64.634
					C545.806,263.33,570.631,241.412,570.631,241.412z"/>
			</g>
			<g>
				<path style="fill:#EFA084;" d="M529.296,270.484l-16.818,14.226l-26.934-20.501l-17.503,12.999c0,0,21.132,25.529,30.517,32.758
					c9.176,7.069,19.517,11.485,30.375,6.812c11.246-4.84,24.704-20.387,24.704-20.387"/>
				<path style="fill:#EFA084;" d="M474.564,284.71c-4.83-6.484-11.944-11.289-15.608-18.471c-1.663-3.258-2.517-6.835-3.357-10.371
					c-0.457-1.925-0.917-3.879-0.841-5.837c0.054-1.396,0.38-2.756,0.705-4.106c0.674-2.802,1.348-5.604,2.022-8.405
					c0.147-0.61,0.308-1.248,0.734-1.701c0.54-0.573,1.479-0.723,2.202-0.352c0.723,0.371,1.169,1.232,1.046,2.019
					c0.496-0.957,0.992-1.914,1.488-2.871c0.261-0.504,0.693-1.09,1.256-0.946c0.276,0.07,0.48,0.304,0.655,0.532
					c0.774,1.012,1.352,2.17,1.689,3.387c1.216-0.083,2.342,0.884,2.846,2.013c0.504,1.13,0.524,2.392,0.535,3.613
					c1.287-0.366,2.439,1.041,2.893,2.328c0.494,1.398,0.551,2.934,1.261,4.245c1.473,2.721,4.375,4.119,6.873,5.846
					c2.361,1.632,4.7,3.587,6.269,6.086c1.563,2.49,1.828,5.762,4.199,7.734"/>
				<g>
					<polygon style="fill:#8696DB;" points="513.851,256.365 469.865,265.073 433.792,211.462 477.779,202.754 					"/>
					<polygon style="fill:#FFFFFF;" points="507.759,252.564 471.09,259.823 439.143,212.696 475.812,205.437 					"/>
					<line style="fill:none;stroke:#E8ECF9;stroke-miterlimit:10;" x1="501.287" y1="247.38" x2="486.822" y2="250.243"/>
					<line style="fill:none;stroke:#E8ECF9;stroke-miterlimit:10;" x1="496.748" y1="241.01" x2="467.819" y2="246.737"/>
					<line style="fill:none;stroke:#E8ECF9;stroke-miterlimit:10;" x1="492.21" y1="234.639" x2="463.28" y2="240.366"/>
					<line style="fill:none;stroke:#E8ECF9;stroke-miterlimit:10;" x1="487.671" y1="228.269" x2="458.742" y2="233.996"/>
					<line style="fill:none;stroke:#E8ECF9;stroke-miterlimit:10;" x1="483.133" y1="221.898" x2="454.203" y2="227.625"/>
					<line style="fill:none;stroke:#E8ECF9;stroke-miterlimit:10;" x1="478.594" y1="215.528" x2="449.665" y2="221.255"/>
					<line style="fill:none;stroke:#E8ECF9;stroke-miterlimit:10;" x1="471.108" y1="211.591" x2="455.329" y2="214.715"/>
					<path style="fill:#3F3B63;" d="M472.957,202.998c-0.645-0.958-1.797-1.444-2.905-1.225l-3.53,0.699l-0.534-0.793
						c-0.41-0.61-1.144-0.92-1.85-0.78l-18.875,3.737c-0.78,0.154-1.132,1.051-0.678,1.725l0.269,0.4l-4.448,0.88
						c-1.225,0.242-1.778,1.65-1.065,2.71l2.399,3.585l34.03-6.737L472.957,202.998z"/>
				</g>
				<path style="fill:#FFFFFF;" d="M573.275,241.496c-9.048-0.724-18.345,2.907-25.686,8.748
					c-8.882,7.067-33.082,32.155-33.082,32.155l31.767,30.996l20.198-22.48"/>
				<path style="fill:#FFFFFF;" d="M559.877,242.848c0,0,5.91-7.668,11.869-8.039c4.802-0.299,31.229-1.633,31.229-1.633
					l3.588,15.636"/>
				<path style="fill:none;stroke:#000000;stroke-linejoin:round;stroke-miterlimit:10;" d="M596.417,241.412l-22.712,0.563
					c-2.607,0.065-5.195,0.362-7.734,0.887l-4.882,1.011"/>
				
					<line style="fill:none;stroke:#000000;stroke-linejoin:round;stroke-miterlimit:10;" x1="546.275" y1="313.394" x2="566.472" y2="290.914"/>
				<path style="fill:#EFA084;stroke:#000000;stroke-miterlimit:10;" d="M461.757,260.527c-0.045-1.289-0.13-2.585-0.135-3.873
					c-0.004-1.014,0.349-1.707,0.617-2.669c0.631-2.265,1.135-4.565,1.893-6.79c0.225-0.661,0.468-1.35,0.946-1.803
					c1.061-1.006,2.297,0.076,2.787,1.271c0.368,0.898,0.449,1.896,0.5,2.871c0.104,1.998-0.68,4.515,0.003,5.988
					c0.359,0.773,1.21,1.401,1.804,1.985c1.229,1.207,2.414,2.441,3.47,3.804c2.349,3.032,4.01,6.123,4.564,9.962"/>
				
					<line style="fill:none;stroke:#000000;stroke-linejoin:round;stroke-miterlimit:10;" x1="523.867" y1="272.84" x2="556.374" y2="302.154"/>
			</g>
			<g>
				
					<line style="fill:none;stroke:#000000;stroke-linejoin:round;stroke-miterlimit:10;" x1="554.372" y1="192.317" x2="545.973" y2="179.101"/>
				
					<line style="fill:none;stroke:#000000;stroke-linejoin:round;stroke-miterlimit:10;" x1="548.583" y1="197.961" x2="536.009" y2="187.484"/>
				
					<line style="fill:none;stroke:#000000;stroke-linejoin:round;stroke-miterlimit:10;" x1="544.782" y1="204.219" x2="530.47" y2="200.571"/>
			</g>
		</g>
		<g>
			<path style="fill:none;stroke:#C6A497;stroke-width:3;stroke-linejoin:round;stroke-miterlimit:10;" d="M655.761,475.357
				l-15.697-61.065c-1.501-5.841-5.671-9.772-10.363-9.772H523.639c-4.923,0-9.239,4.32-10.546,10.555l-12.635,60.282"/>
			<path style="fill:#FFD18D;" d="M567.677,403.192h49.802c8.293,0,15.385-5.965,16.804-14.136L658.12,251.88
				c1.746-10.045-5.987-19.238-16.183-19.238h-43.135c-9.145,0-16.966,6.578-18.531,15.589l-24.474,140.84
				C554.516,396.445,560.192,403.192,567.677,403.192z"/>
			<path style="fill:none;stroke:#E8A656;stroke-linejoin:round;stroke-miterlimit:10;" d="M644.476,233.175h-32.823
				c-8.681,0-16.104,6.244-17.59,14.797l-23.231,133.688"/>
			<path style="fill:#FFD18D;" d="M485.082,403.192h126.237v-20.443H495.127c-3.39,0-6.314,2.381-6.999,5.701L485.082,403.192z"/>
			<g>
				<path style="fill:none;stroke:#8C614D;stroke-width:3;stroke-linejoin:round;stroke-miterlimit:10;" d="M618.738,475.357
					l-15.697-61.065c-1.501-5.841-5.671-9.772-10.363-9.772H486.616c-4.923,0-9.239,4.32-10.546,10.555l-12.635,60.282"/>
				<g>
					<path style="fill:#FFD18D;" d="M483.624,403.192h122.247c3.726,0,6.911-2.68,7.549-6.351l10.537-60.635
						c0.874-5.03-2.998-9.632-8.102-9.632h-108.28c-9.869,0-18.308,7.099-19.998,16.823l-9.288,53.451
						C477.712,400.161,480.262,403.192,483.624,403.192z"/>
				</g>
			</g>
			
				<line style="fill:none;stroke:#E8A656;stroke-linejoin:round;stroke-miterlimit:10;" x1="566.657" y1="326.575" x2="580.646" y2="326.575"/>
		</g>
		<g>
			
				<line style="fill:none;stroke:#A0B3EA;stroke-width:1.5;stroke-miterlimit:10;" x1="325.297" y1="475.654" x2="662.812" y2="475.654"/>
		</g>
	</g>
	<g>
		<g>
			<path style="fill:#F4AA78;" d="M366.578,84.121H289.29c-3.97,0-7.188,3.218-7.188,7.188v26.113c0,3.97,3.218,7.188,7.188,7.188
				h8.035l-4.674,9.452c-0.464,0.938,0.514,1.935,1.461,1.489l23.237-10.941h49.228c3.97,0,7.188-3.218,7.188-7.188V91.31
				C373.766,87.34,370.548,84.121,366.578,84.121z"/>
			<g>
				<circle style="fill:#FFD18D;" cx="291.492" cy="85.101" r="26.839"/>
				<g>
					<path style="fill:#FFEAC5;" d="M305.004,79.249c0-7.228-6.05-13.088-13.512-13.088c-7.463,0-13.512,5.86-13.512,13.088
						c0,3.008,1.051,5.778,2.812,7.988c0.917,1.274,5.48,7.655,5.48,8.489v1.166c0,0.697,0.578,1.262,1.291,1.262h3.315h1.229h3.315
						c0.713,0,1.291-0.565,1.291-1.262v-1.166c0-0.834,4.563-7.214,5.48-8.489C303.954,85.027,305.004,82.257,305.004,79.249z"/>
					<path style="fill:none;stroke:#FFFFFF;stroke-miterlimit:10;" d="M293.959,98.154c0.045-4.367-0.063-8.987,2.196-12.926
						c0.343-0.598,1.18-1.697,2.018-1.161c0.25,0.16,0.374,0.448,0.454,0.728c0.459,1.604-0.111,3.296-0.968,4.676
						c-0.718,1.156-2.101,3.116-3.731,2.874c-1.235-0.183-2.199-1.467-2.738-2.865c-0.963-2.496-1.614-5.637-1.672-8.404
						c-0.055-2.666,0.621-5.213,1.998-5.213h-0.051c1.377,0,2.053,2.547,1.998,5.213c-0.057,2.766-0.709,5.908-1.672,8.404
						c-0.601,1.557-2.155,3.543-4.077,2.502c-2.143-1.16-3.537-4.107-3.556-6.405c-0.006-0.658,0.211-1.776,1.16-1.565
						c0.419,0.093,0.738,0.418,1.006,0.745c2.852,3.481,2.679,8.257,2.693,12.456c0.001,0.314,0.002,0.628,0.005,0.941"/>
					<path style="fill:none;stroke:#FFFFFF;stroke-miterlimit:10;" d="M295.936,101.097h-8.888c-0.813,0-1.471-0.659-1.471-1.471v0
						c0-0.813,0.659-1.471,1.471-1.471h8.888c0.813,0,1.471,0.659,1.471,1.471v0C297.407,100.438,296.749,101.097,295.936,101.097z"
						/>
					<path style="fill:none;stroke:#FFFFFF;stroke-miterlimit:10;" d="M295.936,104.04h-8.888c-0.813,0-1.471-0.659-1.471-1.471l0,0
						c0-0.813,0.659-1.471,1.471-1.471h8.888c0.813,0,1.471,0.659,1.471,1.471l0,0C297.407,103.381,296.749,104.04,295.936,104.04z"
						/>
				</g>
			</g>
			<g>
				
					<line style="fill:none;stroke:#FFFFFF;stroke-linejoin:round;stroke-miterlimit:10;" x1="363.034" y1="93.34" x2="330.197" y2="93.34"/>
				
					<line style="fill:none;stroke:#FFFFFF;stroke-linejoin:round;stroke-miterlimit:10;" x1="363.034" y1="102.568" x2="330.197" y2="102.568"/>
				
					<line style="fill:none;stroke:#FFFFFF;stroke-linejoin:round;stroke-miterlimit:10;" x1="363.034" y1="111.797" x2="314.309" y2="111.797"/>
			</g>
		</g>
		<g>
			<path style="fill:#FFFFFF;" d="M441.918,136.429h52.055c3.355,0,6.075,2.72,6.075,6.075v26.948c0,3.355-2.72,6.075-6.075,6.075
				h-6.79l3.95,7.988c0.392,0.792-0.435,1.635-1.235,1.258l-19.638-9.246h-28.341c-3.355,0-6.075-2.72-6.075-6.075v-26.948
				C435.843,139.149,438.563,136.429,441.918,136.429z"/>
			<g>
				
					<line style="fill:none;stroke:#C5CFEA;stroke-width:1.5;stroke-linejoin:round;stroke-miterlimit:10;" x1="443.583" y1="147.12" x2="469.928" y2="147.12"/>
				
					<line style="fill:none;stroke:#C5CFEA;stroke-width:1.5;stroke-linejoin:round;stroke-miterlimit:10;" x1="443.583" y1="156.348" x2="476.419" y2="156.348"/>
				
					<line style="fill:none;stroke:#C5CFEA;stroke-width:1.5;stroke-linejoin:round;stroke-miterlimit:10;" x1="443.583" y1="165.577" x2="492.307" y2="165.577"/>
			</g>
		</g>
		<g>
			
				<ellipse transform="matrix(0.1636 -0.9865 0.9865 0.1636 314.7907 615.5809)" style="fill:#F9BAAF;" cx="520.443" cy="122.138" rx="41.508" ry="41.508"/>
			<g>
				<g>
					<path style="fill:#E89287;" d="M520.443,156.356c-18.867,0-34.217-15.35-34.217-34.218s15.35-34.218,34.217-34.218
						c18.868,0,34.218,15.35,34.218,34.218S539.311,156.356,520.443,156.356z M520.443,93.214
						c-15.949,0-28.924,12.975-28.924,28.924c0,15.949,12.975,28.924,28.924,28.924c15.95,0,28.925-12.975,28.925-28.924
						C549.368,106.189,536.392,93.214,520.443,93.214z"/>
				</g>
				<g>
					<path style="fill:#E89287;" d="M520.443,143.024c-11.517,0-20.886-9.369-20.886-20.886c0-11.516,9.369-20.886,20.886-20.886
						c11.517,0,20.886,9.369,20.886,20.886C541.329,133.655,531.959,143.024,520.443,143.024z M520.443,106.546
						c-8.598,0-15.593,6.995-15.593,15.592c0,8.598,6.995,15.593,15.593,15.593s15.593-6.995,15.593-15.593
						C536.036,113.54,529.041,106.546,520.443,106.546z"/>
				</g>
				<g>
					<path style="fill:#E89287;" d="M520.443,131.368c-5.088,0-9.229-4.14-9.229-9.229c0-5.089,4.14-9.229,9.229-9.229
						s9.229,4.14,9.229,9.229C529.672,127.227,525.531,131.368,520.443,131.368z M520.443,118.202c-2.17,0-3.936,1.766-3.936,3.936
						c0,2.171,1.766,3.936,3.936,3.936s3.936-1.766,3.936-3.936C524.378,119.968,522.613,118.202,520.443,118.202z"/>
				</g>
			</g>
			<g>
				
					<line style="fill:none;stroke:#C16861;stroke-width:1.5;stroke-miterlimit:10;" x1="575.633" y1="66.948" x2="523.161" y2="119.42"/>
				<polygon style="fill:#C16861;" points="521.802,112.623 520.443,122.138 529.958,120.779 				"/>
				<polyline style="fill:none;stroke:#C16861;stroke-width:1.5;stroke-miterlimit:10;" points="576.155,60.926 575.697,66.884 
					581.655,66.426 				"/>
			</g>
		</g>
		<g>
			<path style="fill:#EFF2F9;" d="M641.548,76.829h-47.436c-2.751,0-4.981,2.23-4.981,4.981v18.095c0,2.751,2.23,4.981,4.981,4.981
				h5.568l-3.238,6.549c-0.321,0.65,0.357,1.341,1.012,1.032l16.102-7.581h27.992c2.751,0,4.981-2.23,4.981-4.981V81.81
				C646.529,79.059,644.299,76.829,641.548,76.829z"/>
			<circle style="fill:#9B9BCE;" cx="634.484" cy="91.449" r="2.078"/>
			<path style="fill:#9B9BCE;" d="M615.753,91.449c0,1.147,0.93,2.078,2.078,2.078c1.148,0,2.078-0.93,2.078-2.078
				c0-1.148-0.93-2.078-2.078-2.078C616.683,89.371,615.753,90.301,615.753,91.449z"/>
			<path style="fill:#9B9BCE;" d="M599.099,91.449c0,1.147,0.93,2.078,2.078,2.078c1.148,0,2.078-0.93,2.078-2.078
				c0-1.148-0.93-2.078-2.078-2.078C600.029,89.371,599.099,90.301,599.099,91.449z"/>
		</g>
		<g>
			<path style="fill:#C6D4F4;" d="M691.806,162.308h-66.877c-3.878,0-7.023,3.144-7.023,7.023v25.511
				c0,3.879,3.144,7.023,7.023,7.023h7.85l-4.566,9.234c-0.453,0.916,0.503,1.89,1.427,1.455l22.702-10.688h39.464
				c3.878,0,7.023-3.144,7.023-7.023v-25.511C698.828,165.452,695.684,162.308,691.806,162.308z"/>
			<path style="fill:#FFFFFF;" d="M668.486,182.494c0,1.148,0.93,2.078,2.078,2.078c1.147,0,2.078-0.93,2.078-2.078
				c0-1.148-0.93-2.078-2.078-2.078C669.416,180.417,668.486,181.347,668.486,182.494z"/>
			<path style="fill:#FFFFFF;" d="M651.832,182.494c0,1.148,0.93,2.078,2.078,2.078c1.148,0,2.078-0.93,2.078-2.078
				c0-1.148-0.93-2.078-2.078-2.078C652.763,180.417,651.832,181.347,651.832,182.494z"/>
			<path style="fill:#FFFFFF;" d="M635.179,182.494c0,1.148,0.93,2.078,2.078,2.078c1.148,0,2.078-0.93,2.078-2.078
				c0-1.148-0.93-2.078-2.078-2.078C636.109,180.417,635.179,181.347,635.179,182.494z"/>
		</g>
		<g>
			<path style="fill:#C6D4F4;" d="M97.871,76.268h71.135c3.551,0,6.429,2.878,6.429,6.429v23.354c0,3.551-2.878,6.429-6.429,6.429
				h-7.186l4.18,8.453c0.415,0.839-0.46,1.73-1.306,1.332l-20.782-9.785h-46.04c-3.551,0-6.429-2.878-6.429-6.429V82.696
				C91.442,79.146,94.32,76.268,97.871,76.268z"/>
			<circle style="fill:#9B9BCE;" cx="120.64" cy="94.686" r="2.078"/>
			<path style="fill:#9B9BCE;" d="M139.372,94.686c0,1.147-0.93,2.078-2.078,2.078c-1.148,0-2.078-0.93-2.078-2.078
				c0-1.148,0.93-2.078,2.078-2.078C138.441,92.608,139.372,93.539,139.372,94.686z"/>
			<path style="fill:#9B9BCE;" d="M156.025,94.686c0,1.147-0.93,2.078-2.078,2.078c-1.148,0-2.078-0.93-2.078-2.078
				c0-1.148,0.93-2.078,2.078-2.078C155.095,92.608,156.025,93.539,156.025,94.686z"/>
		</g>
	</g>
</g>
</svg>
